<?xml version="1.0" encoding="UTF-8"?>
<svg width="55px" height="55px" viewBox="0 0 55 55" version="1.1" xmlns="http://www.w3.org/2000/svg" xmlns:xlink="http://www.w3.org/1999/xlink">
    <!-- Generator: Sketch 54.1 (76490) - https://sketchapp.com -->
    <title>Group 9</title>
    <desc>Created with Sketch.</desc>
    <g id="Page-1" stroke="none" stroke-width="1" fill="none" fill-rule="evenodd">
        <g id="iPhone-8-Plus-Copy-6" transform="translate(-20.000000, -34.000000)" fill="#FFFFFF">
            <g id="Group-9" transform="translate(20.000000, 34.000000)">
                <rect id="Rectangle" fill-rule="nonzero" opacity="0.300000012" x="0" y="0" width="54.4811321" height="54.4811321" rx="27.240566"></rect>
                <path d="M19.0186497,28.1786069 C18.8054473,27.893833 18.6792453,27.5397369 18.6792453,27.1540881 C18.6792453,26.7707167 18.8048767,26.416794 19.0178268,26.1315256 C19.0976157,25.9415069 19.2134092,25.7626832 19.3654442,25.6052463 L26.6006413,18.1129803 C27.2568738,17.4334317 28.3351614,17.4101103 29.0196491,18.0711123 C29.6993977,18.7275379 29.7199891,19.8089769 29.0622288,20.4901077 L24.2791957,25.4430834 L37.7178591,25.4430834 C38.6656367,25.4430834 39.4339623,26.2025382 39.4339623,27.1540881 C39.4339623,28.0990498 38.6706765,28.8650927 37.7178591,28.8650927 L24.2791957,28.8650927 L29.0622288,33.8180684 C29.7199891,34.4991992 29.6993977,35.5806382 29.0196491,36.2370638 C28.3351614,36.8980658 27.2568738,36.8747444 26.6006413,36.1951958 L19.3654442,28.7029298 C19.2139311,28.5460333 19.0984111,28.3678967 19.0186497,28.1786069 Z" id="Back-Arrow-(30x30)"></path>
            </g>
        </g>
    </g>
</svg>