<?xml version="1.0" encoding="UTF-8"?>
<svg width="30px" height="30px" viewBox="0 0 30 30" version="1.1" xmlns="http://www.w3.org/2000/svg" xmlns:xlink="http://www.w3.org/1999/xlink">
    <!-- Generator: Sketch 54.1 (76490) - https://sketchapp.com -->
    <title>Combined Shape</title>
    <desc>Created with Sketch.</desc>
    <g id="Page-1" stroke="none" stroke-width="1" fill="none" fill-rule="evenodd">
        <g id="Landing" transform="translate(-46.000000, -528.000000)" fill="#FFFFFF">
            <g id="Start-with-facebook" transform="translate(22.000000, 509.000000)">
                <path d="M39,49 C30.7157288,49 24,42.2842712 24,34 C24,25.7157288 30.7157288,19 39,19 C47.2842712,19 54,25.7157288 54,34 C54,42.2842712 47.2842712,49 39,49 Z M34.4,33.3666667 L36.5722222,31.2888889 C36.7611111,31.0055556 36.8555556,30.6277778 36.7611111,30.3444444 C36.3833333,29.2111111 36.1944444,28.0777778 36.1944444,26.9444444 C36.1944444,26.3777778 35.8166667,26 35.25,26 L31.9444444,26 C31.3777778,26 31,26.3777778 31,26.9444444 C31,35.8222222 38.1777778,43 47.0555556,43 C47.6222222,43 48,42.6222222 48,42.0555556 L48,38.8444444 C48,38.2777778 47.6222222,37.9 47.0555556,37.9 C45.8277778,37.9 44.6944444,37.7111111 43.6555556,37.3333333 C43.3722222,37.1444444 42.9944444,37.2388889 42.7111111,37.5222222 L40.6333333,39.6 C37.9888889,38.1833333 35.7222222,36.0111111 34.4,33.3666667 Z" id="Combined-Shape"></path>
            </g>
        </g>
    </g>
</svg>