<?xml version="1.0" encoding="UTF-8"?>
<svg width="26px" height="27px" viewBox="0 0 26 27" version="1.1" xmlns="http://www.w3.org/2000/svg" xmlns:xlink="http://www.w3.org/1999/xlink">
    <!-- Generator: Sketch 54.1 (76490) - https://sketchapp.com -->
    <title>Combined Shape</title>
    <desc>Created with Sketch.</desc>
    <g id="Page-1" stroke="none" stroke-width="1" fill="none" fill-rule="evenodd">
        <g id="iPhone-8-Plus" transform="translate(-24.000000, -44.000000)" fill="#FFFFFF" fill-rule="nonzero">
            <path d="M42.5333113,56.4121869 C42.3067762,57.1232107 42.3101733,57.887557 42.5430195,58.5965391 C43.7834969,62.4211912 42.4807642,66.6125294 39.2907754,69.0601242 C36.1007867,71.5077189 31.7150812,71.6809703 28.3419567,69.4926424 C26.9058318,68.5634259 26.8579841,66.4740757 28.230312,65.4526311 C29.057402,64.8389067 30.1783837,64.8024341 31.0436189,65.3610963 C32.4008751,66.2349723 34.1192966,66.3251355 35.5605507,65.5980934 C37.0018048,64.8710513 37.9505455,63.4354353 38.0543492,61.8245261 C36.5891735,62.6302275 34.9362698,63.0322658 33.2647237,62.989514 C28.2150562,62.8688545 24.1147152,58.7608856 24.0023771,53.7112181 C23.882411,48.2967986 28.319073,43.868458 33.7362663,44.0029863 C38.7887076,44.1264195 42.8862748,48.2420164 42.9895982,53.2951511 C43.0126173,54.3523522 42.8583877,55.4059417 42.5333113,56.4121869 Z M33.4963343,58.0514912 C36.0125474,58.0488158 38.0516738,56.0096894 38.0543492,53.4934764 C38.0543492,50.9761543 36.0136564,48.9354615 33.4963343,48.9354615 C30.9790122,48.9354615 28.9383195,50.9761543 28.9383195,53.4934764 C28.9383195,56.0107984 30.9790122,58.0514912 33.4963343,58.0514912 Z M47.630943,58.8517637 C46.3897075,58.8517637 45.3834874,57.8455436 45.3834874,56.6043081 C45.3834874,55.3630726 46.3897075,54.3568524 47.630943,54.3568524 C48.8721785,54.3568524 49.8783987,55.3630726 49.8783987,56.6043081 C49.8783987,57.8455436 48.8721785,58.8517637 47.630943,58.8517637 Z" id="Combined-Shape"></path>
        </g>
    </g>
</svg>