<?xml version="1.0" encoding="UTF-8"?>
<svg width="130px" height="47px" viewBox="0 0 130 47" version="1.1" xmlns="http://www.w3.org/2000/svg" xmlns:xlink="http://www.w3.org/1999/xlink">
    <!-- Generator: Sketch 54.1 (76490) - https://sketchapp.com -->
    <title>Combined Shape</title>
    <desc>Created with Sketch.</desc>
    <g id="Page-1" stroke="none" stroke-width="1" fill="none" fill-rule="evenodd">
        <g id="iPhone-8-Plus-Copy-7" transform="translate(-141.000000, -619.000000)" fill="#FFFFFF" fill-rule="nonzero">
            <path d="M173.250375,640.598821 C172.856174,641.836095 172.862086,643.166157 173.267268,644.399879 C175.42586,651.055271 173.158936,658.348745 167.60794,662.607879 C162.056944,666.867013 154.425246,667.168492 148.55557,663.360517 C146.056526,661.743559 145.973264,658.107818 148.361294,656.330371 C149.800538,655.262411 151.751192,655.198944 153.256814,656.171089 C155.618616,657.691747 158.608894,657.848643 161.116863,656.583495 C163.624833,655.318347 165.275766,652.820188 165.456397,650.016996 C162.906801,651.419022 160.030533,652.118621 157.121825,652.044227 C148.334747,651.834264 141.199619,644.685863 141.004136,635.898784 C140.79538,626.476989 148.515749,618.7711 157.942371,619.005197 C166.734277,619.219986 173.864577,626.381661 174.044373,635.174773 C174.08443,637.014441 173.81605,638.847824 173.250375,640.598821 Z M157.524858,643.451424 C161.903397,643.446769 165.451742,639.898423 165.456397,635.519885 C165.456397,631.139417 161.905326,627.588346 157.524858,627.588346 C153.14439,627.588346 149.593319,631.139417 149.593319,635.519885 C149.593319,639.900353 153.14439,643.451424 157.524858,643.451424 Z M182.120918,644.844003 C179.961006,644.844003 178.210052,643.093049 178.210052,640.933137 C178.210052,638.773226 179.961006,637.022272 182.120918,637.022272 C184.280829,637.022272 186.031783,638.773226 186.031783,640.933137 C186.031783,643.093049 184.280829,644.844003 182.120918,644.844003 Z M201.062,650.334272 C197.941984,650.334272 195.472009,649.450281 193.652,647.682272 C191.831991,645.914263 190.922,643.509287 190.922,640.467272 C190.922,638.465262 191.363996,636.697279 192.248,635.163272 C193.132004,633.629264 194.373492,632.446276 195.9725,631.614272 C197.571508,630.782268 199.39799,630.366272 201.452,630.366272 C202.544005,630.366272 203.635995,630.50927 204.728,630.795272 C205.820005,631.081273 206.781996,631.484269 207.614,632.004272 C208.420004,632.498274 208.823,633.252267 208.823,634.266272 C208.823,635.072276 208.634502,635.728769 208.2575,636.235772 C207.880498,636.742774 207.393003,636.996272 206.795,636.996272 C206.404998,636.996272 206.028002,636.937772 205.664,636.820772 C205.299998,636.703771 204.897002,636.528273 204.455,636.294272 C203.934997,636.060271 203.493002,635.884772 203.129,635.767772 C202.764998,635.650771 202.362002,635.592272 201.92,635.592272 C199.345987,635.592272 198.059,637.165256 198.059,640.311272 C198.059,641.87128 198.390497,643.060768 199.0535,643.879772 C199.716503,644.698776 200.671994,645.108272 201.92,645.108272 C202.362002,645.108272 202.771498,645.049772 203.1485,644.932772 C203.525502,644.815771 203.947998,644.640273 204.416,644.406272 C204.936003,644.172271 205.358498,643.996772 205.6835,643.879772 C206.008502,643.762771 206.365998,643.704272 206.756,643.704272 C207.354003,643.704272 207.841498,643.957769 208.2185,644.464772 C208.595502,644.971774 208.784,645.628268 208.784,646.434272 C208.784,646.928274 208.680001,647.37677 208.472,647.779772 C208.263999,648.182774 207.978002,648.488271 207.614,648.696272 C205.819991,649.788277 203.636013,650.334272 201.062,650.334272 Z M224.384,630.366272 C226.620011,630.366272 228.283995,631.048765 229.376,632.413772 C230.468005,633.778779 231.014,635.852258 231.014,638.634272 L231.014,647.058272 C231.014,648.046277 230.702003,648.826269 230.078,649.398272 C229.453997,649.970275 228.609005,650.256272 227.543,650.256272 C226.476995,650.256272 225.632003,649.970275 225.008,649.398272 C224.383997,648.826269 224.072,648.046277 224.072,647.058272 L224.072,638.478272 C224.072,636.606262 223.266008,635.670272 221.654,635.670272 C220.613995,635.670272 219.788503,636.001768 219.1775,636.664772 C218.566497,637.327775 218.261,638.218266 218.261,639.336272 L218.261,647.058272 C218.261,648.046277 217.949003,648.826269 217.325,649.398272 C216.700997,649.970275 215.856005,650.256272 214.79,650.256272 C213.723995,650.256272 212.879003,649.970275 212.255,649.398272 C211.630997,648.826269 211.319,648.046277 211.319,647.058272 L211.319,625.452272 C211.319,624.542267 211.643997,623.794775 212.294,623.209772 C212.944003,622.624769 213.801995,622.332272 214.868,622.332272 C215.882005,622.332272 216.700997,622.605269 217.325,623.151272 C217.949003,623.697274 218.261,624.425267 218.261,625.335272 L218.261,633.135272 C218.963004,632.225267 219.833995,631.536274 220.874,631.068272 C221.914005,630.600269 223.083993,630.366272 224.384,630.366272 Z M243.845,630.366272 C246.809015,630.366272 248.999493,631.074765 250.4165,632.491772 C251.833507,633.908779 252.542,636.060257 252.542,638.946272 L252.542,647.097272 C252.542,648.085277 252.249503,648.858769 251.6645,649.417772 C251.079497,649.976775 250.267005,650.256272 249.227,650.256272 C248.316995,650.256272 247.569503,649.996274 246.9845,649.476272 C246.399497,648.956269 246.081,648.254276 246.029,647.370272 C245.664998,648.306276 245.054004,649.034269 244.196,649.554272 C243.337996,650.074274 242.311006,650.334272 241.115,650.334272 C239.788993,650.334272 238.593005,650.067774 237.527,649.534772 C236.460995,649.001769 235.622503,648.260776 235.0115,647.311772 C234.400497,646.362767 234.095,645.290278 234.095,644.094272 C234.095,642.716265 234.452496,641.617776 235.1675,640.798772 C235.882504,639.979768 237.019992,639.388274 238.58,639.024272 C240.140008,638.66027 242.245987,638.478272 244.898,638.478272 L245.951,638.478272 L245.951,638.010272 C245.951,637.100267 245.743002,636.443774 245.327,636.040772 C244.910998,635.63777 244.209005,635.436272 243.221,635.436272 C242.154995,635.436272 240.59501,635.800268 238.541,636.528272 C237.942997,636.736273 237.436002,636.840272 237.02,636.840272 C236.369997,636.840272 235.850002,636.606274 235.46,636.138272 C235.069998,635.670269 234.875,635.059275 234.875,634.305272 C234.875,633.733269 234.991999,633.265274 235.226,632.901272 C235.460001,632.53727 235.836997,632.212273 236.357,631.926272 C237.267005,631.458269 238.410993,631.081273 239.789,630.795272 C241.167007,630.50927 242.518993,630.366272 243.845,630.366272 Z M242.753,645.693272 C243.689005,645.693272 244.455997,645.361775 245.054,644.698772 C245.652003,644.035768 245.951,643.184277 245.951,642.144272 L245.951,641.676272 L245.327,641.676272 C243.662992,641.676272 242.480004,641.82577 241.778,642.124772 C241.075996,642.423773 240.725,642.924268 240.725,643.626272 C240.725,644.224275 240.913498,644.71827 241.2905,645.108272 C241.667502,645.498274 242.154997,645.693272 242.753,645.693272 Z M267.791,645.303272 C269.533009,645.407272 270.404,646.187264 270.404,647.643272 C270.404,648.553276 270.053004,649.229269 269.351,649.671272 C268.648996,650.113274 267.648006,650.295272 266.348,650.217272 L265.256,650.139272 C262.915988,649.957271 261.141506,649.248778 259.9325,648.013772 C258.723494,646.778766 258.119,645.056283 258.119,642.846272 L258.119,635.943272 L256.988,635.943272 C254.90799,635.943272 253.868,635.08528 253.868,633.369272 C253.868,631.679263 254.90799,630.834272 256.988,630.834272 L258.119,630.834272 L258.119,628.299272 C258.119,627.311267 258.430997,626.524775 259.055,625.939772 C259.679003,625.354769 260.523995,625.062272 261.59,625.062272 C262.656005,625.062272 263.500997,625.354769 264.125,625.939772 C264.749003,626.524775 265.061,627.311267 265.061,628.299272 L265.061,630.834272 L267.206,630.834272 C269.28601,630.834272 270.326,631.679263 270.326,633.369272 C270.326,635.08528 269.28601,635.943272 267.206,635.943272 L265.061,635.943272 L265.061,643.431272 C265.061,643.925274 265.210499,644.34127 265.5095,644.679272 C265.808501,645.017273 266.191998,645.199272 266.66,645.225272 L267.791,645.303272 Z" id="Combined-Shape"></path>
        </g>
    </g>
</svg>