<?xml version="1.0" encoding="UTF-8"?>
<svg width="18px" height="17px" viewBox="0 0 18 17" version="1.1" xmlns="http://www.w3.org/2000/svg" xmlns:xlink="http://www.w3.org/1999/xlink">
    <!-- Generator: Sketch 54.1 (76490) - https://sketchapp.com -->
    <title>Shape</title>
    <desc>Created with Sketch.</desc>
    <g id="Page-1" stroke="none" stroke-width="1" fill="none" fill-rule="evenodd">
        <g id="iPhone-8-Plus-Copy-11" transform="translate(-21.000000, -571.000000)" fill="#4850B1">
            <path d="M25.76,572.36 L24.57,571.17 C22.53,572.7 21.17,575.08 21,577.8 L22.7,577.8 C22.87,575.505 23.975,573.55 25.76,572.36 L25.76,572.36 Z M37.15,577.8 L38.85,577.8 C38.68,575.08 37.405,572.7 35.365,571.17 L34.175,572.36 C35.875,573.55 36.98,575.505 37.15,577.8 L37.15,577.8 Z M35.45,578.225 C35.45,575.59 33.665,573.465 31.2,572.87 L31.2,572.275 C31.2,571.595 30.605,571 29.925,571 C29.245,571 28.65,571.595 28.65,572.275 L28.65,572.87 C26.185,573.465 24.4,575.59 24.4,578.225 L24.4,582.9 L22.7,584.6 L22.7,585.45 L37.15,585.45 L37.15,584.6 L35.45,582.9 L35.45,578.225 L35.45,578.225 Z M29.925,588 L30.265,588 C30.86,587.915 31.285,587.49 31.455,586.98 C31.54,586.81 31.625,586.555 31.625,586.3 L28.225,586.3 C28.225,587.235 28.99,588 29.925,588 L29.925,588 Z" id="Shape"></path>
        </g>
    </g>
</svg>