<?xml version="1.0" encoding="UTF-8"?>
<svg width="18px" height="18px" viewBox="0 0 18 18" version="1.1" xmlns="http://www.w3.org/2000/svg" xmlns:xlink="http://www.w3.org/1999/xlink">
    <!-- Generator: Sketch 54.1 (76490) - https://sketchapp.com -->
    <title>Shape</title>
    <desc>Created with Sketch.</desc>
    <g id="Page-1" stroke="none" stroke-width="1" fill="none" fill-rule="evenodd">
        <g id="iPhone-8-Plus-Copy-3" transform="translate(-264.000000, -697.000000)" fill="#4850B1">
            <path d="M273,697 C268.05,697 264,701.05 264,706 C264,710.95 268.05,715 273,715 C277.95,715 282,710.95 282,706 C282,701.05 277.95,697 273,697 L273,697 Z M265.8,706 C265.8,702.04 269.04,698.8 273,698.8 C274.62,698.8 276.15,699.34 277.41,700.33 L267.33,710.41 C266.34,709.15 265.8,707.62 265.8,706 L265.8,706 Z M273,713.2 C271.38,713.2 269.85,712.66 268.59,711.67 L278.67,701.59 C279.66,702.85 280.2,704.38 280.2,706 C280.2,709.96 276.96,713.2 273,713.2 L273,713.2 Z" id="Shape"></path>
        </g>
    </g>
</svg>