<?xml version="1.0" encoding="UTF-8"?>
<svg width="18px" height="18px" viewBox="0 0 18 18" version="1.1" xmlns="http://www.w3.org/2000/svg" xmlns:xlink="http://www.w3.org/1999/xlink">
    <!-- Generator: Sketch 54.1 (76490) - https://sketchapp.com -->
    <title>Shape</title>
    <desc>Created with Sketch.</desc>
    <g id="Page-1" stroke="none" stroke-width="1" fill="none" fill-rule="evenodd">
        <g id="iPhone-8-Plus-Copy-3" transform="translate(-368.000000, -625.000000)" fill="#4850B1">
            <path d="M371.6,632.8 C373,635.6 375.4,637.9 378.2,639.4 L380.4,637.2 C380.7,636.9 381.1,636.8 381.4,637 C382.5,637.4 383.7,637.6 385,637.6 C385.6,637.6 386,638 386,638.6 L386,642 C386,642.6 385.6,643 385,643 C375.6,643 368,635.4 368,626 C368,625.4 368.4,625 369,625 L372.5,625 C373.1,625 373.5,625.4 373.5,626 C373.5,627.2 373.7,628.4 374.1,629.6 C374.2,629.9 374.1,630.3 373.9,630.6 L371.6,632.8 L371.6,632.8 Z" id="Shape"></path>
        </g>
    </g>
</svg>