<?xml version="1.0" encoding="UTF-8"?>
<svg width="17px" height="17px" viewBox="0 0 17 17" version="1.1" xmlns="http://www.w3.org/2000/svg" xmlns:xlink="http://www.w3.org/1999/xlink">
    <!-- Generator: Sketch 54.1 (76490) - https://sketchapp.com -->
    <title>Shape</title>
    <desc>Created with Sketch.</desc>
    <g id="Page-1" stroke="none" stroke-width="1" fill="none" fill-rule="evenodd">
        <g id="iPhone-8-Plus-Copy-11" transform="translate(-22.000000, -507.000000)" fill="#4850B1">
            <path d="M37.3,507 L23.7,507 C22.765,507 22,507.765 22,508.7 L22,524 L25.4,520.6 L37.3,520.6 C38.235,520.6 39,519.835 39,518.9 L39,508.7 C39,507.765 38.235,507 37.3,507 L37.3,507 Z M27.95,514.65 L26.25,514.65 L26.25,512.95 L27.95,512.95 L27.95,514.65 L27.95,514.65 Z M31.35,514.65 L29.65,514.65 L29.65,512.95 L31.35,512.95 L31.35,514.65 L31.35,514.65 Z M34.75,514.65 L33.05,514.65 L33.05,512.95 L34.75,512.95 L34.75,514.65 L34.75,514.65 Z" id="Shape"></path>
        </g>
    </g>
</svg>