<?xml version="1.0" encoding="UTF-8"?>
<svg width="17px" height="17px" viewBox="0 0 17 17" version="1.1" xmlns="http://www.w3.org/2000/svg" xmlns:xlink="http://www.w3.org/1999/xlink">
    <!-- Generator: Sketch 54.1 (76490) - https://sketchapp.com -->
    <title>Shape</title>
    <desc>Created with Sketch.</desc>
    <g id="Page-1" stroke="none" stroke-width="1" fill="none" fill-rule="evenodd">
        <g id="iPhone-8-Plus-Copy-11" transform="translate(-21.000000, -632.000000)" fill="#4850B1">
            <path d="M29.5,632 C24.825,632 21,635.825 21,640.5 C21,645.175 24.825,649 29.5,649 C34.175,649 38,645.175 38,640.5 C38,635.825 34.175,632 29.5,632 L29.5,632 Z M30.35,646.45 L28.65,646.45 L28.65,644.75 L30.35,644.75 L30.35,646.45 L30.35,646.45 Z M32.135,639.905 L31.37,640.67 C30.69,641.265 30.35,641.775 30.35,643.05 L28.65,643.05 L28.65,642.625 C28.65,641.69 28.99,640.84 29.67,640.245 L30.69,639.14 C31.03,638.885 31.2,638.46 31.2,637.95 C31.2,637.015 30.435,636.25 29.5,636.25 C28.565,636.25 27.8,637.015 27.8,637.95 L26.1,637.95 C26.1,636.08 27.63,634.55 29.5,634.55 C31.37,634.55 32.9,636.08 32.9,637.95 C32.9,638.715 32.56,639.395 32.135,639.905 L32.135,639.905 Z" id="Shape"></path>
        </g>
    </g>
</svg>