<?xml version="1.0" encoding="UTF-8"?>
<svg width="13px" height="17px" viewBox="0 0 13 17" version="1.1" xmlns="http://www.w3.org/2000/svg" xmlns:xlink="http://www.w3.org/1999/xlink">
    <!-- Generator: Sketch 54.1 (76490) - https://sketchapp.com -->
    <title>Shape</title>
    <desc>Created with Sketch.</desc>
    <g id="Page-1" stroke="none" stroke-width="1" fill="none" fill-rule="evenodd">
        <g id="iPhone-8-Plus-Copy-11" transform="translate(-24.000000, -443.000000)" fill="#4850B1">
            <path d="M35.3333333,448.666667 L34.5238095,448.666667 L34.5238095,447.047619 C34.5238095,444.780952 32.7428571,443 30.4761905,443 C28.2095238,443 26.4285714,444.780952 26.4285714,447.047619 L26.4285714,448.666667 L25.6190476,448.666667 C24.7285714,448.666667 24,449.395238 24,450.285714 L24,458.380952 C24,459.271429 24.7285714,460 25.6190476,460 L35.3333333,460 C36.2238095,460 36.952381,459.271429 36.952381,458.380952 L36.952381,450.285714 C36.952381,449.395238 36.2238095,448.666667 35.3333333,448.666667 L35.3333333,448.666667 Z M30.4761905,455.952381 C29.5857143,455.952381 28.8571429,455.22381 28.8571429,454.333333 C28.8571429,453.442857 29.5857143,452.714286 30.4761905,452.714286 C31.3666667,452.714286 32.0952381,453.442857 32.0952381,454.333333 C32.0952381,455.22381 31.3666667,455.952381 30.4761905,455.952381 L30.4761905,455.952381 Z M32.9857143,448.666667 L27.9666667,448.666667 L27.9666667,447.047619 C27.9666667,445.671429 29.1,444.538095 30.4761905,444.538095 C31.852381,444.538095 32.9857143,445.671429 32.9857143,447.047619 L32.9857143,448.666667 L32.9857143,448.666667 Z" id="Shape"></path>
        </g>
    </g>
</svg>